
<!-- <svg width="347" height="347" viewBox="0 0 347 347" fill="none" xmlns="http://www.w3.org/2000/svg">
<g opacity="0.32" filter="url(#filter0_f_23_1557)">
<rect x="266.049" y="211.075" width="141.407" height="141.407" rx="7.71313" transform="rotate(157.122 266.049 211.075)" fill="#CFE1FF"/>
<rect x="266.049" y="211.075" width="141.407" height="141.407" rx="7.71313" transform="rotate(157.122 266.049 211.075)" fill="url(#paint0_linear_23_1557)" fill-opacity="0.85"/>
<rect x="266.049" y="211.075" width="141.407" height="141.407" rx="7.71313" transform="rotate(157.122 266.049 211.075)" fill="url(#paint1_linear_23_1557)"/>
<rect x="266.049" y="211.075" width="141.407" height="141.407" rx="7.71313" transform="rotate(157.122 266.049 211.075)" fill="url(#paint2_linear_23_1557)" style="mix-blend-mode:darken"/>
<rect x="266.049" y="211.075" width="141.407" height="141.407" rx="7.71313" transform="rotate(157.122 266.049 211.075)" fill="url(#paint3_linear_23_1557)" fill-opacity="0.8"/>
</g>
<defs>
<filter id="filter0_f_23_1557" x="7.62939e-05" y="7.62939e-05" width="346.84" height="346.84" filterUnits="userSpaceOnUse" color-interpolation-filters="sRGB">
<feFlood flood-opacity="0" result="BackgroundImageFix"/>
<feBlend mode="normal" in="SourceGraphic" in2="BackgroundImageFix" result="shape"/>
<feGaussianBlur stdDeviation="41.5904" result="effect1_foregroundBlur_23_1557"/>
</filter>
<linearGradient id="paint0_linear_23_1557" x1="322.865" y1="214.389" x2="421.192" y2="338.33" gradientUnits="userSpaceOnUse">
<stop stop-color="#5B97F7"/>
<stop offset="1" stop-color="#5B97F7" stop-opacity="0"/>
</linearGradient>
<linearGradient id="paint1_linear_23_1557" x1="374.783" y1="303.739" x2="301.952" y2="259.711" gradientUnits="userSpaceOnUse">
<stop stop-color="#F9D77F"/>
<stop offset="1" stop-color="#F9D77F" stop-opacity="0"/>
</linearGradient>
<linearGradient id="paint2_linear_23_1557" x1="279.306" y1="251.95" x2="342.976" y2="210.27" gradientUnits="userSpaceOnUse">
<stop stop-color="#D584FB"/>
<stop offset="1" stop-color="#D584FB" stop-opacity="0"/>
</linearGradient>
<linearGradient id="paint3_linear_23_1557" x1="310.87" y1="331.124" x2="335.682" y2="281.617" gradientUnits="userSpaceOnUse">
<stop stop-color="#FF9595"/>
<stop offset="1" stop-color="#FF9595" stop-opacity="0"/>
</linearGradient>
</defs>
</svg> -->
<svg width="160" height="160" viewBox="0 0 320 320" fill="none" xmlns="http://www.w3.org/2000/svg"><g opacity=".32" filter="url(#a)"><rect x="266.049" y="211.075" width="141.407" height="141.407" rx="7.713" transform="rotate(157.122 266.049 211.075)" fill="#cfe1ff"/><rect x="266.049" y="211.075" width="141.407" height="141.407" rx="7.713" transform="rotate(157.122 266.049 211.075)" fill="url(#b)" fill-opacity=".85"/><rect x="266.049" y="211.075" width="141.407" height="141.407" rx="7.713" transform="rotate(157.122 266.049 211.075)" fill="url(#c)"/><rect x="266.049" y="211.075" width="141.407" height="141.407" rx="7.713" transform="rotate(157.122 266.049 211.075)" fill="url(#d)" style="mix-blend-mode:darken"/><rect x="266.049" y="211.075" width="141.407" height="141.407" rx="7.713" transform="rotate(157.122 266.049 211.075)" fill="url(#e)" fill-opacity=".8"/></g><defs><linearGradient id="b" x1="322.865" y1="214.389" x2="421.192" y2="338.33" gradientUnits="userSpaceOnUse"><stop stop-color="#007bff"/><stop offset="1" stop-color="#007bff" stop-opacity="0"/></linearGradient><linearGradient id="c" x1="374.783" y1="303.739" x2="301.952" y2="259.711" gradientUnits="userSpaceOnUse"><stop stop-color="#ffc107"/><stop offset="1" stop-color="#ffc107" stop-opacity="0"/></linearGradient><linearGradient id="d" x1="279.306" y1="251.95" x2="342.976" y2="210.27" gradientUnits="userSpaceOnUse"><stop stop-color="#a0f"/><stop offset="1" stop-color="#a0f" stop-opacity="0"/></linearGradient><linearGradient id="e" x1="310.87" y1="331.124" x2="335.682" y2="281.617" gradientUnits="userSpaceOnUse"><stop stop-color="red"/><stop offset="1" stop-color="red" stop-opacity="0"/></linearGradient><filter id="a" x="0" y="0" width="346.84" height="346.84" filterUnits="userSpaceOnUse" color-interpolation-filters="sRGB"><feFlood flood-opacity="0" result="BackgroundImageFix"/><feBlend in="SourceGraphic" in2="BackgroundImageFix" result="shape"/><feGaussianBlur stdDeviation="41.59" result="effect1_foregroundBlur_23_1557"/></filter></defs></svg>